  0
SECTION
  2
HEADER
  9
$ACADVER
  1
AC1009
  9
$EXTMIN
 10
0.0
 20
0.0
 30
0.0
  9
$EXTMAX
 10
1000.0
 20
1000.0
 30
0.0
  9
$FILLMODE
 70
 0
  9
$SPLFRAME
 70
 1
  0
ENDSEC
  0
SECTION
  2
TABLES
  0
TABLE
  2
LAYER
 70
1
  0
LAYER
  2
0
 70
     0
 62
     7
  6
CONTINUOUS
  0
ENDTAB
  0
ENDSEC
  0
SECTION
  2
ENTITIES
  0
LINE
  8
0
 62
     0
 10
0.0950846
 20
133.435
 30
0.0
 11
438.245
 21
133.435
 31
0.0
  0
LINE
  8
0
 62
     0
 10
438.245
 20
133.435
 30
0.0
 11
438.245
 21
0.0854385
 31
0.0
  0
LINE
  8
0
 62
     0
 10
438.245
 20
0.0854385
 30
0.0
 11
0.0950846
 21
0.0854385
 31
0.0
  0
LINE
  8
0
 62
     0
 10
0.0950846
 20
0.0854385
 30
0.0
 11
0.0950846
 21
133.435
 31
0.0
  0
LINE
  8
0
 62
     0
 10
87.8706
 20
5.73952
 30
0.0
 11
90.5372
 21
5.73952
 31
0.0
  0
LINE
  8
0
 62
     0
 10
90.5372
 20
5.73952
 30
0.0
 11
90.5372
 21
0.530546
 31
0.0
  0
LINE
  8
0
 62
     0
 10
90.5372
 20
0.530546
 30
0.0
 11
87.8706
 21
0.530546
 31
0.0
  0
LINE
  8
0
 62
     0
 10
87.8706
 20
0.530546
 30
0.0
 11
87.8706
 21
5.73952
 31
0.0
  0
LINE
  8
0
 62
     0
 10
171.589
 20
5.73952
 30
0.0
 11
174.254
 21
5.73952
 31
0.0
  0
LINE
  8
0
 62
     0
 10
174.254
 20
5.73952
 30
0.0
 11
174.254
 21
0.530546
 31
0.0
  0
LINE
  8
0
 62
     0
 10
174.254
 20
0.530546
 30
0.0
 11
171.589
 21
0.530546
 31
0.0
  0
LINE
  8
0
 62
     0
 10
171.589
 20
0.530546
 30
0.0
 11
171.589
 21
5.73952
 31
0.0
  0
LINE
  8
0
 62
     0
 10
365.665
 20
5.73952
 30
0.0
 11
368.332
 21
5.73952
 31
0.0
  0
LINE
  8
0
 62
     0
 10
368.332
 20
5.73952
 30
0.0
 11
368.332
 21
0.530546
 31
0.0
  0
LINE
  8
0
 62
     0
 10
368.332
 20
0.530546
 30
0.0
 11
365.665
 21
0.530546
 31
0.0
  0
LINE
  8
0
 62
     0
 10
365.665
 20
0.530546
 30
0.0
 11
365.665
 21
5.73952
 31
0.0
  0
LINE
  8
0
 62
     0
 10
393.859
 20
5.73952
 30
0.0
 11
396.522
 21
5.73952
 31
0.0
  0
LINE
  8
0
 62
     0
 10
396.522
 20
5.73952
 30
0.0
 11
396.522
 21
0.530546
 31
0.0
  0
LINE
  8
0
 62
     0
 10
396.522
 20
0.530546
 30
0.0
 11
393.859
 21
0.530546
 31
0.0
  0
LINE
  8
0
 62
     0
 10
393.859
 20
0.530546
 30
0.0
 11
393.859
 21
5.73952
 31
0.0
  0
LINE
  8
0
 62
     0
 10
4.20028
 20
16.0128
 30
0.0
 11
19.801
 21
16.0128
 31
0.0
  0
LINE
  8
0
 62
     0
 10
19.801
 20
16.0128
 30
0.0
 11
19.801
 21
3.21221
 31
0.0
  0
LINE
  8
0
 62
     0
 10
19.801
 20
3.21221
 30
0.0
 11
4.20028
 21
3.21221
 31
0.0
  0
LINE
  8
0
 62
     0
 10
4.20028
 20
3.21221
 30
0.0
 11
4.20028
 21
16.0128
 31
0.0
  0
LINE
  8
0
 62
     0
 10
28.0128
 20
16.0128
 30
0.0
 11
43.6122
 21
16.0128
 31
0.0
  0
LINE
  8
0
 62
     0
 10
43.6122
 20
16.0128
 30
0.0
 11
43.6122
 21
3.21221
 31
0.0
  0
LINE
  8
0
 62
     0
 10
43.6122
 20
3.21221
 30
0.0
 11
28.0128
 21
3.21221
 31
0.0
  0
LINE
  8
0
 62
     0
 10
28.0128
 20
3.21221
 30
0.0
 11
28.0128
 21
16.0128
 31
0.0
  0
LINE
  8
0
 62
     0
 10
51.8252
 20
16.0128
 30
0.0
 11
67.4261
 21
16.0128
 31
0.0
  0
LINE
  8
0
 62
     0
 10
67.4261
 20
16.0128
 30
0.0
 11
67.4261
 21
3.21221
 31
0.0
  0
LINE
  8
0
 62
     0
 10
67.4261
 20
3.21221
 30
0.0
 11
51.8252
 21
3.21221
 31
0.0
  0
LINE
  8
0
 62
     0
 10
51.8252
 20
3.21221
 30
0.0
 11
51.8252
 21
16.0128
 31
0.0
  0
LINE
  8
0
 62
     0
 10
123.263
 20
16.0128
 30
0.0
 11
138.862
 21
16.0128
 31
0.0
  0
LINE
  8
0
 62
     0
 10
138.862
 20
16.0128
 30
0.0
 11
138.862
 21
3.21221
 31
0.0
  0
LINE
  8
0
 62
     0
 10
138.862
 20
3.21221
 30
0.0
 11
123.263
 21
3.21221
 31
0.0
  0
LINE
  8
0
 62
     0
 10
123.263
 20
3.21221
 30
0.0
 11
123.263
 21
16.0128
 31
0.0
  0
LINE
  8
0
 62
     0
 10
194.7
 20
16.0128
 30
0.0
 11
210.301
 21
16.0128
 31
0.0
  0
LINE
  8
0
 62
     0
 10
210.301
 20
16.0128
 30
0.0
 11
210.301
 21
3.21221
 31
0.0
  0
LINE
  8
0
 62
     0
 10
210.301
 20
3.21221
 30
0.0
 11
194.7
 21
3.21221
 31
0.0
  0
LINE
  8
0
 62
     0
 10
194.7
 20
3.21221
 30
0.0
 11
194.7
 21
16.0128
 31
0.0
  0
LINE
  8
0
 62
     0
 10
218.513
 20
16.0128
 30
0.0
 11
234.112
 21
16.0128
 31
0.0
  0
LINE
  8
0
 62
     0
 10
234.112
 20
16.0128
 30
0.0
 11
234.112
 21
3.21221
 31
0.0
  0
LINE
  8
0
 62
     0
 10
234.112
 20
3.21221
 30
0.0
 11
218.513
 21
3.21221
 31
0.0
  0
LINE
  8
0
 62
     0
 10
218.513
 20
3.21221
 30
0.0
 11
218.513
 21
16.0128
 31
0.0
  0
LINE
  8
0
 62
     0
 10
242.325
 20
16.0128
 30
0.0
 11
257.926
 21
16.0128
 31
0.0
  0
LINE
  8
0
 62
     0
 10
257.926
 20
16.0128
 30
0.0
 11
257.926
 21
3.21221
 31
0.0
  0
LINE
  8
0
 62
     0
 10
257.926
 20
3.21221
 30
0.0
 11
242.325
 21
3.21221
 31
0.0
  0
LINE
  8
0
 62
     0
 10
242.325
 20
3.21221
 30
0.0
 11
242.325
 21
16.0128
 31
0.0
  0
LINE
  8
0
 62
     0
 10
266.138
 20
16.0128
 30
0.0
 11
281.737
 21
16.0128
 31
0.0
  0
LINE
  8
0
 62
     0
 10
281.737
 20
16.0128
 30
0.0
 11
281.737
 21
3.21221
 31
0.0
  0
LINE
  8
0
 62
     0
 10
281.737
 20
3.21221
 30
0.0
 11
266.138
 21
3.21221
 31
0.0
  0
LINE
  8
0
 62
     0
 10
266.138
 20
3.21221
 30
0.0
 11
266.138
 21
16.0128
 31
0.0
  0
LINE
  8
0
 62
     0
 10
297.095
 20
16.0128
 30
0.0
 11
312.695
 21
16.0128
 31
0.0
  0
LINE
  8
0
 62
     0
 10
312.695
 20
16.0128
 30
0.0
 11
312.695
 21
3.21221
 31
0.0
  0
LINE
  8
0
 62
     0
 10
312.695
 20
3.21221
 30
0.0
 11
297.095
 21
3.21221
 31
0.0
  0
LINE
  8
0
 62
     0
 10
297.095
 20
3.21221
 30
0.0
 11
297.095
 21
16.0128
 31
0.0
  0
LINE
  8
0
 62
     0
 10
316.145
 20
16.0128
 30
0.0
 11
331.745
 21
16.0128
 31
0.0
  0
LINE
  8
0
 62
     0
 10
331.745
 20
16.0128
 30
0.0
 11
331.745
 21
3.21221
 31
0.0
  0
LINE
  8
0
 62
     0
 10
331.745
 20
3.21221
 30
0.0
 11
316.145
 21
3.21221
 31
0.0
  0
LINE
  8
0
 62
     0
 10
316.145
 20
3.21221
 30
0.0
 11
316.145
 21
16.0128
 31
0.0
  0
LINE
  8
0
 62
     0
 10
335.195
 20
16.0128
 30
0.0
 11
350.795
 21
16.0128
 31
0.0
  0
LINE
  8
0
 62
     0
 10
350.795
 20
16.0128
 30
0.0
 11
350.795
 21
3.21221
 31
0.0
  0
LINE
  8
0
 62
     0
 10
350.795
 20
3.21221
 30
0.0
 11
335.195
 21
3.21221
 31
0.0
  0
LINE
  8
0
 62
     0
 10
335.195
 20
3.21221
 30
0.0
 11
335.195
 21
16.0128
 31
0.0
  0
LINE
  8
0
 62
     0
 10
373.295
 20
16.0128
 30
0.0
 11
388.895
 21
16.0128
 31
0.0
  0
LINE
  8
0
 62
     0
 10
388.895
 20
16.0128
 30
0.0
 11
388.895
 21
3.21221
 31
0.0
  0
LINE
  8
0
 62
     0
 10
388.895
 20
3.21221
 30
0.0
 11
373.295
 21
3.21221
 31
0.0
  0
LINE
  8
0
 62
     0
 10
373.295
 20
3.21221
 30
0.0
 11
373.295
 21
16.0128
 31
0.0
  0
LINE
  8
0
 62
     0
 10
401.87
 20
16.0128
 30
0.0
 11
417.47
 21
16.0128
 31
0.0
  0
LINE
  8
0
 62
     0
 10
417.47
 20
16.0128
 30
0.0
 11
417.47
 21
3.21221
 31
0.0
  0
LINE
  8
0
 62
     0
 10
417.47
 20
3.21221
 30
0.0
 11
401.87
 21
3.21221
 31
0.0
  0
LINE
  8
0
 62
     0
 10
401.87
 20
3.21221
 30
0.0
 11
401.87
 21
16.0128
 31
0.0
  0
LINE
  8
0
 62
     0
 10
419.64
 20
6.3748
 30
0.0
 11
424.847
 21
6.3748
 31
0.0
  0
LINE
  8
0
 62
     0
 10
424.847
 20
6.3748
 30
0.0
 11
424.847
 21
3.70967
 31
0.0
  0
LINE
  8
0
 62
     0
 10
424.847
 20
3.70967
 30
0.0
 11
419.64
 21
3.70967
 31
0.0
  0
LINE
  8
0
 62
     0
 10
419.64
 20
3.70967
 30
0.0
 11
419.64
 21
6.3748
 31
0.0
  0
LINE
  8
0
 62
     0
 10
422.321
 20
26.9365
 30
0.0
 11
435.12
 21
26.9365
 31
0.0
  0
LINE
  8
0
 62
     0
 10
435.12
 20
26.9365
 30
0.0
 11
435.12
 21
11.3357
 31
0.0
  0
LINE
  8
0
 62
     0
 10
435.12
 20
11.3357
 30
0.0
 11
422.321
 21
11.3357
 31
0.0
  0
LINE
  8
0
 62
     0
 10
422.321
 20
11.3357
 30
0.0
 11
422.321
 21
26.9365
 31
0.0
  0
LINE
  8
0
 62
     0
 10
6.09646
 20
24.7895
 30
0.0
 11
8.76293
 21
24.7895
 31
0.0
  0
LINE
  8
0
 62
     0
 10
8.76293
 20
24.7895
 30
0.0
 11
8.76293
 21
19.5833
 31
0.0
  0
LINE
  8
0
 62
     0
 10
8.76293
 20
19.5833
 30
0.0
 11
6.09646
 21
19.5833
 31
0.0
  0
LINE
  8
0
 62
     0
 10
6.09646
 20
19.5833
 30
0.0
 11
6.09646
 21
24.7895
 31
0.0
  0
LINE
  8
0
 62
     0
 10
34.2883
 20
24.7895
 30
0.0
 11
36.9549
 21
24.7895
 31
0.0
  0
LINE
  8
0
 62
     0
 10
36.9549
 20
24.7895
 30
0.0
 11
36.9549
 21
19.5833
 31
0.0
  0
LINE
  8
0
 62
     0
 10
36.9549
 20
19.5833
 30
0.0
 11
34.2883
 21
19.5833
 31
0.0
  0
LINE
  8
0
 62
     0
 10
34.2883
 20
19.5833
 30
0.0
 11
34.2883
 21
24.7895
 31
0.0
  0
LINE
  8
0
 62
     0
 10
244.221
 20
24.7895
 30
0.0
 11
246.888
 21
24.7895
 31
0.0
  0
LINE
  8
0
 62
     0
 10
246.888
 20
24.7895
 30
0.0
 11
246.888
 21
19.5833
 31
0.0
  0
LINE
  8
0
 62
     0
 10
246.888
 20
19.5833
 30
0.0
 11
244.221
 21
19.5833
 31
0.0
  0
LINE
  8
0
 62
     0
 10
244.221
 20
19.5833
 30
0.0
 11
244.221
 21
24.7895
 31
0.0
  0
LINE
  8
0
 62
     0
 10
272.413
 20
24.7895
 30
0.0
 11
275.08
 21
24.7895
 31
0.0
  0
LINE
  8
0
 62
     0
 10
275.08
 20
24.7895
 30
0.0
 11
275.08
 21
19.5833
 31
0.0
  0
LINE
  8
0
 62
     0
 10
275.08
 20
19.5833
 30
0.0
 11
272.413
 21
19.5833
 31
0.0
  0
LINE
  8
0
 62
     0
 10
272.413
 20
19.5833
 30
0.0
 11
272.413
 21
24.7895
 31
0.0
  0
LINE
  8
0
 62
     0
 10
13.7253
 20
35.0628
 30
0.0
 11
29.326
 21
35.0628
 31
0.0
  0
LINE
  8
0
 62
     0
 10
29.326
 20
35.0628
 30
0.0
 11
29.326
 21
22.2622
 31
0.0
  0
LINE
  8
0
 62
     0
 10
29.326
 20
22.2622
 30
0.0
 11
13.7253
 21
22.2622
 31
0.0
  0
LINE
  8
0
 62
     0
 10
13.7253
 20
22.2622
 30
0.0
 11
13.7253
 21
35.0628
 31
0.0
  0
LINE
  8
0
 62
     0
 10
44.6814
 20
35.0628
 30
0.0
 11
60.2823
 21
35.0628
 31
0.0
  0
LINE
  8
0
 62
     0
 10
60.2823
 20
35.0628
 30
0.0
 11
60.2823
 21
22.2622
 31
0.0
  0
LINE
  8
0
 62
     0
 10
60.2823
 20
22.2622
 30
0.0
 11
44.6814
 21
22.2622
 31
0.0
  0
LINE
  8
0
 62
     0
 10
44.6814
 20
22.2622
 30
0.0
 11
44.6814
 21
35.0628
 31
0.0
  0
LINE
  8
0
 62
     0
 10
63.7314
 20
35.0628
 30
0.0
 11
79.3323
 21
35.0628
 31
0.0
  0
LINE
  8
0
 62
     0
 10
79.3323
 20
35.0628
 30
0.0
 11
79.3323
 21
22.2622
 31
0.0
  0
LINE
  8
0
 62
     0
 10
79.3323
 20
22.2622
 30
0.0
 11
63.7314
 21
22.2622
 31
0.0
  0
LINE
  8
0
 62
     0
 10
63.7314
 20
22.2622
 30
0.0
 11
63.7314
 21
35.0628
 31
0.0
  0
LINE
  8
0
 62
     0
 10
82.7814
 20
35.0628
 30
0.0
 11
98.3823
 21
35.0628
 31
0.0
  0
LINE
  8
0
 62
     0
 10
98.3823
 20
35.0628
 30
0.0
 11
98.3823
 21
22.2622
 31
0.0
  0
LINE
  8
0
 62
     0
 10
98.3823
 20
22.2622
 30
0.0
 11
82.7814
 21
22.2622
 31
0.0
  0
LINE
  8
0
 62
     0
 10
82.7814
 20
22.2622
 30
0.0
 11
82.7814
 21
35.0628
 31
0.0
  0
LINE
  8
0
 62
     0
 10
101.831
 20
35.0628
 30
0.0
 11
117.432
 21
35.0628
 31
0.0
  0
LINE
  8
0
 62
     0
 10
117.432
 20
35.0628
 30
0.0
 11
117.432
 21
22.2622
 31
0.0
  0
LINE
  8
0
 62
     0
 10
117.432
 20
22.2622
 30
0.0
 11
101.831
 21
22.2622
 31
0.0
  0
LINE
  8
0
 62
     0
 10
101.831
 20
22.2622
 30
0.0
 11
101.831
 21
35.0628
 31
0.0
  0
LINE
  8
0
 62
     0
 10
120.881
 20
35.0628
 30
0.0
 11
136.482
 21
35.0628
 31
0.0
  0
LINE
  8
0
 62
     0
 10
136.482
 20
35.0628
 30
0.0
 11
136.482
 21
22.2622
 31
0.0
  0
LINE
  8
0
 62
     0
 10
136.482
 20
22.2622
 30
0.0
 11
120.881
 21
22.2622
 31
0.0
  0
LINE
  8
0
 62
     0
 10
120.881
 20
22.2622
 30
0.0
 11
120.881
 21
35.0628
 31
0.0
  0
LINE
  8
0
 62
     0
 10
139.931
 20
35.0628
 30
0.0
 11
155.532
 21
35.0628
 31
0.0
  0
LINE
  8
0
 62
     0
 10
155.532
 20
35.0628
 30
0.0
 11
155.532
 21
22.2622
 31
0.0
  0
LINE
  8
0
 62
     0
 10
155.532
 20
22.2622
 30
0.0
 11
139.931
 21
22.2622
 31
0.0
  0
LINE
  8
0
 62
     0
 10
139.931
 20
22.2622
 30
0.0
 11
139.931
 21
35.0628
 31
0.0
  0
LINE
  8
0
 62
     0
 10
158.981
 20
35.0628
 30
0.0
 11
174.582
 21
35.0628
 31
0.0
  0
LINE
  8
0
 62
     0
 10
174.582
 20
35.0628
 30
0.0
 11
174.582
 21
22.2622
 31
0.0
  0
LINE
  8
0
 62
     0
 10
174.582
 20
22.2622
 30
0.0
 11
158.981
 21
22.2622
 31
0.0
  0
LINE
  8
0
 62
     0
 10
158.981
 20
22.2622
 30
0.0
 11
158.981
 21
35.0628
 31
0.0
  0
LINE
  8
0
 62
     0
 10
178.031
 20
35.0628
 30
0.0
 11
193.632
 21
35.0628
 31
0.0
  0
LINE
  8
0
 62
     0
 10
193.632
 20
35.0628
 30
0.0
 11
193.632
 21
22.2622
 31
0.0
  0
LINE
  8
0
 62
     0
 10
193.632
 20
22.2622
 30
0.0
 11
178.031
 21
22.2622
 31
0.0
  0
LINE
  8
0
 62
     0
 10
178.031
 20
22.2622
 30
0.0
 11
178.031
 21
35.0628
 31
0.0
  0
LINE
  8
0
 62
     0
 10
197.081
 20
35.0628
 30
0.0
 11
212.682
 21
35.0628
 31
0.0
  0
LINE
  8
0
 62
     0
 10
212.682
 20
35.0628
 30
0.0
 11
212.682
 21
22.2622
 31
0.0
  0
LINE
  8
0
 62
     0
 10
212.682
 20
22.2622
 30
0.0
 11
197.081
 21
22.2622
 31
0.0
  0
LINE
  8
0
 62
     0
 10
197.081
 20
22.2622
 30
0.0
 11
197.081
 21
35.0628
 31
0.0
  0
LINE
  8
0
 62
     0
 10
216.131
 20
35.0628
 30
0.0
 11
231.732
 21
35.0628
 31
0.0
  0
LINE
  8
0
 62
     0
 10
231.732
 20
35.0628
 30
0.0
 11
231.732
 21
22.2622
 31
0.0
  0
LINE
  8
0
 62
     0
 10
231.732
 20
22.2622
 30
0.0
 11
216.131
 21
22.2622
 31
0.0
  0
LINE
  8
0
 62
     0
 10
216.131
 20
22.2622
 30
0.0
 11
216.131
 21
35.0628
 31
0.0
  0
LINE
  8
0
 62
     0
 10
251.85
 20
35.0628
 30
0.0
 11
267.451
 21
35.0628
 31
0.0
  0
LINE
  8
0
 62
     0
 10
267.451
 20
35.0628
 30
0.0
 11
267.451
 21
22.2622
 31
0.0
  0
LINE
  8
0
 62
     0
 10
267.451
 20
22.2622
 30
0.0
 11
251.85
 21
22.2622
 31
0.0
  0
LINE
  8
0
 62
     0
 10
251.85
 20
22.2622
 30
0.0
 11
251.85
 21
35.0628
 31
0.0
  0
LINE
  8
0
 62
     0
 10
316.145
 20
35.0628
 30
0.0
 11
331.745
 21
35.0628
 31
0.0
  0
LINE
  8
0
 62
     0
 10
331.745
 20
35.0628
 30
0.0
 11
331.745
 21
22.2622
 31
0.0
  0
LINE
  8
0
 62
     0
 10
331.745
 20
22.2622
 30
0.0
 11
316.145
 21
22.2622
 31
0.0
  0
LINE
  8
0
 62
     0
 10
316.145
 20
22.2622
 30
0.0
 11
316.145
 21
35.0628
 31
0.0
  0
LINE
  8
0
 62
     0
 10
363.77
 20
35.0628
 30
0.0
 11
379.37
 21
35.0628
 31
0.0
  0
LINE
  8
0
 62
     0
 10
379.37
 20
35.0628
 30
0.0
 11
379.37
 21
22.2622
 31
0.0
  0
LINE
  8
0
 62
     0
 10
379.37
 20
22.2622
 30
0.0
 11
363.77
 21
22.2622
 31
0.0
  0
LINE
  8
0
 62
     0
 10
363.77
 20
22.2622
 30
0.0
 11
363.77
 21
35.0628
 31
0.0
  0
LINE
  8
0
 62
     0
 10
382.82
 20
35.0628
 30
0.0
 11
398.42
 21
35.0628
 31
0.0
  0
LINE
  8
0
 62
     0
 10
398.42
 20
35.0628
 30
0.0
 11
398.42
 21
22.2622
 31
0.0
  0
LINE
  8
0
 62
     0
 10
398.42
 20
22.2622
 30
0.0
 11
382.82
 21
22.2622
 31
0.0
  0
LINE
  8
0
 62
     0
 10
382.82
 20
22.2622
 30
0.0
 11
382.82
 21
35.0628
 31
0.0
  0
LINE
  8
0
 62
     0
 10
401.87
 20
35.0628
 30
0.0
 11
417.47
 21
35.0628
 31
0.0
  0
LINE
  8
0
 62
     0
 10
417.47
 20
35.0628
 30
0.0
 11
417.47
 21
22.2622
 31
0.0
  0
LINE
  8
0
 62
     0
 10
417.47
 20
22.2622
 30
0.0
 11
401.87
 21
22.2622
 31
0.0
  0
LINE
  8
0
 62
     0
 10
401.87
 20
22.2622
 30
0.0
 11
401.87
 21
35.0628
 31
0.0
  0
LINE
  8
0
 62
     0
 10
419.64
 20
34.5667
 30
0.0
 11
424.847
 21
34.5667
 31
0.0
  0
LINE
  8
0
 62
     0
 10
424.847
 20
34.5667
 30
0.0
 11
424.847
 21
31.9016
 31
0.0
  0
LINE
  8
0
 62
     0
 10
424.847
 20
31.9016
 30
0.0
 11
419.64
 21
31.9016
 31
0.0
  0
LINE
  8
0
 62
     0
 10
419.64
 20
31.9016
 30
0.0
 11
419.64
 21
34.5667
 31
0.0
  0
LINE
  8
0
 62
     0
 10
3.49195
 20
43.8397
 30
0.0
 11
6.15707
 21
43.8397
 31
0.0
  0
LINE
  8
0
 62
     0
 10
6.15707
 20
43.8397
 30
0.0
 11
6.15707
 21
38.6334
 31
0.0
  0
LINE
  8
0
 62
     0
 10
6.15707
 20
38.6334
 30
0.0
 11
3.49195
 21
38.6334
 31
0.0
  0
LINE
  8
0
 62
     0
 10
3.49195
 20
38.6334
 30
0.0
 11
3.49195
 21
43.8397
 31
0.0
  0
LINE
  8
0
 62
     0
 10
27.3678
 20
43.8397
 30
0.0
 11
30.0343
 21
43.8397
 31
0.0
  0
LINE
  8
0
 62
     0
 10
30.0343
 20
43.8397
 30
0.0
 11
30.0343
 21
38.6334
 31
0.0
  0
LINE
  8
0
 62
     0
 10
30.0343
 20
38.6334
 30
0.0
 11
27.3678
 21
38.6334
 31
0.0
  0
LINE
  8
0
 62
     0
 10
27.3678
 20
38.6334
 30
0.0
 11
27.3678
 21
43.8397
 31
0.0
  0
LINE
  8
0
 62
     0
 10
248.984
 20
43.8397
 30
0.0
 11
251.649
 21
43.8397
 31
0.0
  0
LINE
  8
0
 62
     0
 10
251.649
 20
43.8397
 30
0.0
 11
251.649
 21
38.6334
 31
0.0
  0
LINE
  8
0
 62
     0
 10
251.649
 20
38.6334
 30
0.0
 11
248.984
 21
38.6334
 31
0.0
  0
LINE
  8
0
 62
     0
 10
248.984
 20
38.6334
 30
0.0
 11
248.984
 21
43.8397
 31
0.0
  0
LINE
  8
0
 62
     0
 10
277.176
 20
43.8397
 30
0.0
 11
279.842
 21
43.8397
 31
0.0
  0
LINE
  8
0
 62
     0
 10
279.842
 20
43.8397
 30
0.0
 11
279.842
 21
38.6334
 31
0.0
  0
LINE
  8
0
 62
     0
 10
279.842
 20
38.6334
 30
0.0
 11
277.176
 21
38.6334
 31
0.0
  0
LINE
  8
0
 62
     0
 10
277.176
 20
38.6334
 30
0.0
 11
277.176
 21
43.8397
 31
0.0
  0
LINE
  8
0
 62
     0
 10
8.96278
 20
54.1129
 30
0.0
 11
24.5622
 21
54.1129
 31
0.0
  0
LINE
  8
0
 62
     0
 10
24.5622
 20
54.1129
 30
0.0
 11
24.5622
 21
41.312
 31
0.0
  0
LINE
  8
0
 62
     0
 10
24.5622
 20
41.312
 30
0.0
 11
8.96278
 21
41.312
 31
0.0
  0
LINE
  8
0
 62
     0
 10
8.96278
 20
41.312
 30
0.0
 11
8.96278
 21
54.1129
 31
0.0
  0
LINE
  8
0
 62
     0
 10
35.1565
 20
54.1129
 30
0.0
 11
50.7573
 21
54.1129
 31
0.0
  0
LINE
  8
0
 62
     0
 10
50.7573
 20
54.1129
 30
0.0
 11
50.7573
 21
41.312
 31
0.0
  0
LINE
  8
0
 62
     0
 10
50.7573
 20
41.312
 30
0.0
 11
35.1565
 21
41.312
 31
0.0
  0
LINE
  8
0
 62
     0
 10
35.1565
 20
41.312
 30
0.0
 11
35.1565
 21
54.1129
 31
0.0
  0
LINE
  8
0
 62
     0
 10
54.2064
 20
54.1129
 30
0.0
 11
69.8073
 21
54.1129
 31
0.0
  0
LINE
  8
0
 62
     0
 10
69.8073
 20
54.1129
 30
0.0
 11
69.8073
 21
41.312
 31
0.0
  0
LINE
  8
0
 62
     0
 10
69.8073
 20
41.312
 30
0.0
 11
54.2064
 21
41.312
 31
0.0
  0
LINE
  8
0
 62
     0
 10
54.2064
 20
41.312
 30
0.0
 11
54.2064
 21
54.1129
 31
0.0
  0
LINE
  8
0
 62
     0
 10
73.2564
 20
54.1129
 30
0.0
 11
88.8573
 21
54.1129
 31
0.0
  0
LINE
  8
0
 62
     0
 10
88.8573
 20
54.1129
 30
0.0
 11
88.8573
 21
41.312
 31
0.0
  0
LINE
  8
0
 62
     0
 10
88.8573
 20
41.312
 30
0.0
 11
73.2564
 21
41.312
 31
0.0
  0
LINE
  8
0
 62
     0
 10
73.2564
 20
41.312
 30
0.0
 11
73.2564
 21
54.1129
 31
0.0
  0
LINE
  8
0
 62
     0
 10
92.3064
 20
54.1129
 30
0.0
 11
107.907
 21
54.1129
 31
0.0
  0
LINE
  8
0
 62
     0
 10
107.907
 20
54.1129
 30
0.0
 11
107.907
 21
41.312
 31
0.0
  0
LINE
  8
0
 62
     0
 10
107.907
 20
41.312
 30
0.0
 11
92.3064
 21
41.312
 31
0.0
  0
LINE
  8
0
 62
     0
 10
92.3064
 20
41.312
 30
0.0
 11
92.3064
 21
54.1129
 31
0.0
  0
LINE
  8
0
 62
     0
 10
111.356
 20
54.1129
 30
0.0
 11
126.957
 21
54.1129
 31
0.0
  0
LINE
  8
0
 62
     0
 10
126.957
 20
54.1129
 30
0.0
 11
126.957
 21
41.312
 31
0.0
  0
LINE
  8
0
 62
     0
 10
126.957
 20
41.312
 30
0.0
 11
111.356
 21
41.312
 31
0.0
  0
LINE
  8
0
 62
     0
 10
111.356
 20
41.312
 30
0.0
 11
111.356
 21
54.1129
 31
0.0
  0
LINE
  8
0
 62
     0
 10
130.406
 20
54.1129
 30
0.0
 11
146.007
 21
54.1129
 31
0.0
  0
LINE
  8
0
 62
     0
 10
146.007
 20
54.1129
 30
0.0
 11
146.007
 21
41.312
 31
0.0
  0
LINE
  8
0
 62
     0
 10
146.007
 20
41.312
 30
0.0
 11
130.406
 21
41.312
 31
0.0
  0
LINE
  8
0
 62
     0
 10
130.406
 20
41.312
 30
0.0
 11
130.406
 21
54.1129
 31
0.0
  0
LINE
  8
0
 62
     0
 10
149.456
 20
54.1129
 30
0.0
 11
165.057
 21
54.1129
 31
0.0
  0
LINE
  8
0
 62
     0
 10
165.057
 20
54.1129
 30
0.0
 11
165.057
 21
41.312
 31
0.0
  0
LINE
  8
0
 62
     0
 10
165.057
 20
41.312
 30
0.0
 11
149.456
 21
41.312
 31
0.0
  0
LINE
  8
0
 62
     0
 10
149.456
 20
41.312
 30
0.0
 11
149.456
 21
54.1129
 31
0.0
  0
LINE
  8
0
 62
     0
 10
168.506
 20
54.1129
 30
0.0
 11
184.107
 21
54.1129
 31
0.0
  0
LINE
  8
0
 62
     0
 10
184.107
 20
54.1129
 30
0.0
 11
184.107
 21
41.312
 31
0.0
  0
LINE
  8
0
 62
     0
 10
184.107
 20
41.312
 30
0.0
 11
168.506
 21
41.312
 31
0.0
  0
LINE
  8
0
 62
     0
 10
168.506
 20
41.312
 30
0.0
 11
168.506
 21
54.1129
 31
0.0
  0
LINE
  8
0
 62
     0
 10
187.556
 20
54.1129
 30
0.0
 11
203.157
 21
54.1129
 31
0.0
  0
LINE
  8
0
 62
     0
 10
203.157
 20
54.1129
 30
0.0
 11
203.157
 21
41.312
 31
0.0
  0
LINE
  8
0
 62
     0
 10
203.157
 20
41.312
 30
0.0
 11
187.556
 21
41.312
 31
0.0
  0
LINE
  8
0
 62
     0
 10
187.556
 20
41.312
 30
0.0
 11
187.556
 21
54.1129
 31
0.0
  0
LINE
  8
0
 62
     0
 10
206.606
 20
54.1129
 30
0.0
 11
222.207
 21
54.1129
 31
0.0
  0
LINE
  8
0
 62
     0
 10
222.207
 20
54.1129
 30
0.0
 11
222.207
 21
41.312
 31
0.0
  0
LINE
  8
0
 62
     0
 10
222.207
 20
41.312
 30
0.0
 11
206.606
 21
41.312
 31
0.0
  0
LINE
  8
0
 62
     0
 10
206.606
 20
41.312
 30
0.0
 11
206.606
 21
54.1129
 31
0.0
  0
LINE
  8
0
 62
     0
 10
225.656
 20
54.1129
 30
0.0
 11
241.257
 21
54.1129
 31
0.0
  0
LINE
  8
0
 62
     0
 10
241.257
 20
54.1129
 30
0.0
 11
241.257
 21
41.312
 31
0.0
  0
LINE
  8
0
 62
     0
 10
241.257
 20
41.312
 30
0.0
 11
225.656
 21
41.312
 31
0.0
  0
LINE
  8
0
 62
     0
 10
225.656
 20
41.312
 30
0.0
 11
225.656
 21
54.1129
 31
0.0
  0
LINE
  8
0
 62
     0
 10
256.611
 20
54.1129
 30
0.0
 11
272.212
 21
54.1129
 31
0.0
  0
LINE
  8
0
 62
     0
 10
272.212
 20
54.1129
 30
0.0
 11
272.212
 21
41.312
 31
0.0
  0
LINE
  8
0
 62
     0
 10
272.212
 20
41.312
 30
0.0
 11
256.611
 21
41.312
 31
0.0
  0
LINE
  8
0
 62
     0
 10
256.611
 20
41.312
 30
0.0
 11
256.611
 21
54.1129
 31
0.0
  0
LINE
  8
0
 62
     0
 10
363.77
 20
54.1129
 30
0.0
 11
379.37
 21
54.1129
 31
0.0
  0
LINE
  8
0
 62
     0
 10
379.37
 20
54.1129
 30
0.0
 11
379.37
 21
41.312
 31
0.0
  0
LINE
  8
0
 62
     0
 10
379.37
 20
41.312
 30
0.0
 11
363.77
 21
41.312
 31
0.0
  0
LINE
  8
0
 62
     0
 10
363.77
 20
41.312
 30
0.0
 11
363.77
 21
54.1129
 31
0.0
  0
LINE
  8
0
 62
     0
 10
382.82
 20
54.1129
 30
0.0
 11
398.42
 21
54.1129
 31
0.0
  0
LINE
  8
0
 62
     0
 10
398.42
 20
54.1129
 30
0.0
 11
398.42
 21
41.312
 31
0.0
  0
LINE
  8
0
 62
     0
 10
398.42
 20
41.312
 30
0.0
 11
382.82
 21
41.312
 31
0.0
  0
LINE
  8
0
 62
     0
 10
382.82
 20
41.312
 30
0.0
 11
382.82
 21
54.1129
 31
0.0
  0
LINE
  8
0
 62
     0
 10
401.87
 20
54.1129
 30
0.0
 11
417.47
 21
54.1129
 31
0.0
  0
LINE
  8
0
 62
     0
 10
417.47
 20
54.1129
 30
0.0
 11
417.47
 21
41.312
 31
0.0
  0
LINE
  8
0
 62
     0
 10
417.47
 20
41.312
 30
0.0
 11
401.87
 21
41.312
 31
0.0
  0
LINE
  8
0
 62
     0
 10
401.87
 20
41.312
 30
0.0
 11
401.87
 21
54.1129
 31
0.0
  0
LINE
  8
0
 62
     0
 10
419.64
 20
44.4747
 30
0.0
 11
424.847
 21
44.4747
 31
0.0
  0
LINE
  8
0
 62
     0
 10
424.847
 20
44.4747
 30
0.0
 11
424.847
 21
41.8084
 31
0.0
  0
LINE
  8
0
 62
     0
 10
424.847
 20
41.8084
 30
0.0
 11
419.64
 21
41.8084
 31
0.0
  0
LINE
  8
0
 62
     0
 10
419.64
 20
41.8084
 30
0.0
 11
419.64
 21
44.4747
 31
0.0
  0
LINE
  8
0
 62
     0
 10
422.321
 20
65.0363
 30
0.0
 11
435.12
 21
65.0363
 31
0.0
  0
LINE
  8
0
 62
     0
 10
435.12
 20
65.0363
 30
0.0
 11
435.12
 21
49.4358
 31
0.0
  0
LINE
  8
0
 62
     0
 10
435.12
 20
49.4358
 30
0.0
 11
422.321
 21
49.4358
 31
0.0
  0
LINE
  8
0
 62
     0
 10
422.321
 20
49.4358
 30
0.0
 11
422.321
 21
65.0363
 31
0.0
  0
LINE
  8
0
 62
     0
 10
6.58153
 20
73.1629
 30
0.0
 11
22.1823
 21
73.1629
 31
0.0
  0
LINE
  8
0
 62
     0
 10
22.1823
 20
73.1629
 30
0.0
 11
22.1823
 21
60.362
 31
0.0
  0
LINE
  8
0
 62
     0
 10
22.1823
 20
60.362
 30
0.0
 11
6.58153
 21
60.362
 31
0.0
  0
LINE
  8
0
 62
     0
 10
6.58153
 20
60.362
 30
0.0
 11
6.58153
 21
73.1629
 31
0.0
  0
LINE
  8
0
 62
     0
 10
30.3954
 20
73.1629
 30
0.0
 11
45.9948
 21
73.1629
 31
0.0
  0
LINE
  8
0
 62
     0
 10
45.9948
 20
73.1629
 30
0.0
 11
45.9948
 21
60.362
 31
0.0
  0
LINE
  8
0
 62
     0
 10
45.9948
 20
60.362
 30
0.0
 11
30.3954
 21
60.362
 31
0.0
  0
LINE
  8
0
 62
     0
 10
30.3954
 20
60.362
 30
0.0
 11
30.3954
 21
73.1629
 31
0.0
  0
LINE
  8
0
 62
     0
 10
49.4453
 20
73.1629
 30
0.0
 11
65.0448
 21
73.1629
 31
0.0
  0
LINE
  8
0
 62
     0
 10
65.0448
 20
73.1629
 30
0.0
 11
65.0448
 21
60.362
 31
0.0
  0
LINE
  8
0
 62
     0
 10
65.0448
 20
60.362
 30
0.0
 11
49.4453
 21
60.362
 31
0.0
  0
LINE
  8
0
 62
     0
 10
49.4453
 20
60.362
 30
0.0
 11
49.4453
 21
73.1629
 31
0.0
  0
LINE
  8
0
 62
     0
 10
68.4953
 20
73.1629
 30
0.0
 11
84.0948
 21
73.1629
 31
0.0
  0
LINE
  8
0
 62
     0
 10
84.0948
 20
73.1629
 30
0.0
 11
84.0948
 21
60.362
 31
0.0
  0
LINE
  8
0
 62
     0
 10
84.0948
 20
60.362
 30
0.0
 11
68.4953
 21
60.362
 31
0.0
  0
LINE
  8
0
 62
     0
 10
68.4953
 20
60.362
 30
0.0
 11
68.4953
 21
73.1629
 31
0.0
  0
LINE
  8
0
 62
     0
 10
87.5453
 20
73.1629
 30
0.0
 11
103.145
 21
73.1629
 31
0.0
  0
LINE
  8
0
 62
     0
 10
103.145
 20
73.1629
 30
0.0
 11
103.145
 21
60.362
 31
0.0
  0
LINE
  8
0
 62
     0
 10
103.145
 20
60.362
 30
0.0
 11
87.5453
 21
60.362
 31
0.0
  0
LINE
  8
0
 62
     0
 10
87.5453
 20
60.362
 30
0.0
 11
87.5453
 21
73.1629
 31
0.0
  0
LINE
  8
0
 62
     0
 10
106.595
 20
73.1629
 30
0.0
 11
122.195
 21
73.1629
 31
0.0
  0
LINE
  8
0
 62
     0
 10
122.195
 20
73.1629
 30
0.0
 11
122.195
 21
60.362
 31
0.0
  0
LINE
  8
0
 62
     0
 10
122.195
 20
60.362
 30
0.0
 11
106.595
 21
60.362
 31
0.0
  0
LINE
  8
0
 62
     0
 10
106.595
 20
60.362
 30
0.0
 11
106.595
 21
73.1629
 31
0.0
  0
LINE
  8
0
 62
     0
 10
125.644
 20
73.1629
 30
0.0
 11
141.245
 21
73.1629
 31
0.0
  0
LINE
  8
0
 62
     0
 10
141.245
 20
73.1629
 30
0.0
 11
141.245
 21
60.362
 31
0.0
  0
LINE
  8
0
 62
     0
 10
141.245
 20
60.362
 30
0.0
 11
125.644
 21
60.362
 31
0.0
  0
LINE
  8
0
 62
     0
 10
125.644
 20
60.362
 30
0.0
 11
125.644
 21
73.1629
 31
0.0
  0
LINE
  8
0
 62
     0
 10
144.695
 20
73.1629
 30
0.0
 11
160.295
 21
73.1629
 31
0.0
  0
LINE
  8
0
 62
     0
 10
160.295
 20
73.1629
 30
0.0
 11
160.295
 21
60.362
 31
0.0
  0
LINE
  8
0
 62
     0
 10
160.295
 20
60.362
 30
0.0
 11
144.695
 21
60.362
 31
0.0
  0
LINE
  8
0
 62
     0
 10
144.695
 20
60.362
 30
0.0
 11
144.695
 21
73.1629
 31
0.0
  0
LINE
  8
0
 62
     0
 10
163.745
 20
73.1629
 30
0.0
 11
179.345
 21
73.1629
 31
0.0
  0
LINE
  8
0
 62
     0
 10
179.345
 20
73.1629
 30
0.0
 11
179.345
 21
60.362
 31
0.0
  0
LINE
  8
0
 62
     0
 10
179.345
 20
60.362
 30
0.0
 11
163.745
 21
60.362
 31
0.0
  0
LINE
  8
0
 62
     0
 10
163.745
 20
60.362
 30
0.0
 11
163.745
 21
73.1629
 31
0.0
  0
LINE
  8
0
 62
     0
 10
182.795
 20
73.1629
 30
0.0
 11
198.395
 21
73.1629
 31
0.0
  0
LINE
  8
0
 62
     0
 10
198.395
 20
73.1629
 30
0.0
 11
198.395
 21
60.362
 31
0.0
  0
LINE
  8
0
 62
     0
 10
198.395
 20
60.362
 30
0.0
 11
182.795
 21
60.362
 31
0.0
  0
LINE
  8
0
 62
     0
 10
182.795
 20
60.362
 30
0.0
 11
182.795
 21
73.1629
 31
0.0
  0
LINE
  8
0
 62
     0
 10
201.845
 20
73.1629
 30
0.0
 11
217.445
 21
73.1629
 31
0.0
  0
LINE
  8
0
 62
     0
 10
217.445
 20
73.1629
 30
0.0
 11
217.445
 21
60.362
 31
0.0
  0
LINE
  8
0
 62
     0
 10
217.445
 20
60.362
 30
0.0
 11
201.845
 21
60.362
 31
0.0
  0
LINE
  8
0
 62
     0
 10
201.845
 20
60.362
 30
0.0
 11
201.845
 21
73.1629
 31
0.0
  0
LINE
  8
0
 62
     0
 10
220.895
 20
73.1629
 30
0.0
 11
236.495
 21
73.1629
 31
0.0
  0
LINE
  8
0
 62
     0
 10
236.495
 20
73.1629
 30
0.0
 11
236.495
 21
60.362
 31
0.0
  0
LINE
  8
0
 62
     0
 10
236.495
 20
60.362
 30
0.0
 11
220.895
 21
60.362
 31
0.0
  0
LINE
  8
0
 62
     0
 10
220.895
 20
60.362
 30
0.0
 11
220.895
 21
73.1629
 31
0.0
  0
LINE
  8
0
 62
     0
 10
239.945
 20
73.1629
 30
0.0
 11
255.545
 21
73.1629
 31
0.0
  0
LINE
  8
0
 62
     0
 10
255.545
 20
73.1629
 30
0.0
 11
255.545
 21
60.362
 31
0.0
  0
LINE
  8
0
 62
     0
 10
255.545
 20
60.362
 30
0.0
 11
239.945
 21
60.362
 31
0.0
  0
LINE
  8
0
 62
     0
 10
239.945
 20
60.362
 30
0.0
 11
239.945
 21
73.1629
 31
0.0
  0
LINE
  8
0
 62
     0
 10
263.756
 20
73.1629
 30
0.0
 11
279.357
 21
73.1629
 31
0.0
  0
LINE
  8
0
 62
     0
 10
279.357
 20
73.1629
 30
0.0
 11
279.357
 21
60.362
 31
0.0
  0
LINE
  8
0
 62
     0
 10
279.357
 20
60.362
 30
0.0
 11
263.756
 21
60.362
 31
0.0
  0
LINE
  8
0
 62
     0
 10
263.756
 20
60.362
 30
0.0
 11
263.756
 21
73.1629
 31
0.0
  0
LINE
  8
0
 62
     0
 10
297.095
 20
73.1629
 30
0.0
 11
312.695
 21
73.1629
 31
0.0
  0
LINE
  8
0
 62
     0
 10
312.695
 20
73.1629
 30
0.0
 11
312.695
 21
60.362
 31
0.0
  0
LINE
  8
0
 62
     0
 10
312.695
 20
60.362
 30
0.0
 11
297.095
 21
60.362
 31
0.0
  0
LINE
  8
0
 62
     0
 10
297.095
 20
60.362
 30
0.0
 11
297.095
 21
73.1629
 31
0.0
  0
LINE
  8
0
 62
     0
 10
316.145
 20
73.1629
 30
0.0
 11
331.745
 21
73.1629
 31
0.0
  0
LINE
  8
0
 62
     0
 10
331.745
 20
73.1629
 30
0.0
 11
331.745
 21
60.362
 31
0.0
  0
LINE
  8
0
 62
     0
 10
331.745
 20
60.362
 30
0.0
 11
316.145
 21
60.362
 31
0.0
  0
LINE
  8
0
 62
     0
 10
316.145
 20
60.362
 30
0.0
 11
316.145
 21
73.1629
 31
0.0
  0
LINE
  8
0
 62
     0
 10
335.195
 20
73.1629
 30
0.0
 11
350.795
 21
73.1629
 31
0.0
  0
LINE
  8
0
 62
     0
 10
350.795
 20
73.1629
 30
0.0
 11
350.795
 21
60.362
 31
0.0
  0
LINE
  8
0
 62
     0
 10
350.795
 20
60.362
 30
0.0
 11
335.195
 21
60.362
 31
0.0
  0
LINE
  8
0
 62
     0
 10
335.195
 20
60.362
 30
0.0
 11
335.195
 21
73.1629
 31
0.0
  0
LINE
  8
0
 62
     0
 10
363.77
 20
73.1629
 30
0.0
 11
379.37
 21
73.1629
 31
0.0
  0
LINE
  8
0
 62
     0
 10
379.37
 20
73.1629
 30
0.0
 11
379.37
 21
60.362
 31
0.0
  0
LINE
  8
0
 62
     0
 10
379.37
 20
60.362
 30
0.0
 11
363.77
 21
60.362
 31
0.0
  0
LINE
  8
0
 62
     0
 10
363.77
 20
60.362
 30
0.0
 11
363.77
 21
73.1629
 31
0.0
  0
LINE
  8
0
 62
     0
 10
382.82
 20
73.1629
 30
0.0
 11
398.42
 21
73.1629
 31
0.0
  0
LINE
  8
0
 62
     0
 10
398.42
 20
73.1629
 30
0.0
 11
398.42
 21
60.362
 31
0.0
  0
LINE
  8
0
 62
     0
 10
398.42
 20
60.362
 30
0.0
 11
382.82
 21
60.362
 31
0.0
  0
LINE
  8
0
 62
     0
 10
382.82
 20
60.362
 30
0.0
 11
382.82
 21
73.1629
 31
0.0
  0
LINE
  8
0
 62
     0
 10
401.87
 20
73.1629
 30
0.0
 11
417.47
 21
73.1629
 31
0.0
  0
LINE
  8
0
 62
     0
 10
417.47
 20
73.1629
 30
0.0
 11
417.47
 21
60.362
 31
0.0
  0
LINE
  8
0
 62
     0
 10
417.47
 20
60.362
 30
0.0
 11
401.87
 21
60.362
 31
0.0
  0
LINE
  8
0
 62
     0
 10
401.87
 20
60.362
 30
0.0
 11
401.87
 21
73.1629
 31
0.0
  0
LINE
  8
0
 62
     0
 10
419.64
 20
72.6666
 30
0.0
 11
424.847
 21
72.6666
 31
0.0
  0
LINE
  8
0
 62
     0
 10
424.847
 20
72.6666
 30
0.0
 11
424.847
 21
69.9989
 31
0.0
  0
LINE
  8
0
 62
     0
 10
424.847
 20
69.9989
 30
0.0
 11
419.64
 21
69.9989
 31
0.0
  0
LINE
  8
0
 62
     0
 10
419.64
 20
69.9989
 30
0.0
 11
419.64
 21
72.6666
 31
0.0
  0
LINE
  8
0
 62
     0
 10
251.365
 20
81.9397
 30
0.0
 11
254.032
 21
81.9397
 31
0.0
  0
LINE
  8
0
 62
     0
 10
254.032
 20
81.9397
 30
0.0
 11
254.032
 21
76.7306
 31
0.0
  0
LINE
  8
0
 62
     0
 10
254.032
 20
76.7306
 30
0.0
 11
251.365
 21
76.7306
 31
0.0
  0
LINE
  8
0
 62
     0
 10
251.365
 20
76.7306
 30
0.0
 11
251.365
 21
81.9397
 31
0.0
  0
LINE
  8
0
 62
     0
 10
279.557
 20
81.9397
 30
0.0
 11
282.224
 21
81.9397
 31
0.0
  0
LINE
  8
0
 62
     0
 10
282.224
 20
81.9397
 30
0.0
 11
282.224
 21
76.7306
 31
0.0
  0
LINE
  8
0
 62
     0
 10
282.224
 20
76.7306
 30
0.0
 11
279.557
 21
76.7306
 31
0.0
  0
LINE
  8
0
 62
     0
 10
279.557
 20
76.7306
 30
0.0
 11
279.557
 21
81.9397
 31
0.0
  0
LINE
  8
0
 62
     0
 10
1.82039
 20
92.2129
 30
0.0
 11
17.4198
 21
92.2129
 31
0.0
  0
LINE
  8
0
 62
     0
 10
17.4198
 20
92.2129
 30
0.0
 11
17.4198
 21
79.412
 31
0.0
  0
LINE
  8
0
 62
     0
 10
17.4198
 20
79.412
 30
0.0
 11
1.82039
 21
79.412
 31
0.0
  0
LINE
  8
0
 62
     0
 10
1.82039
 20
79.412
 30
0.0
 11
1.82039
 21
92.2129
 31
0.0
  0
LINE
  8
0
 62
     0
 10
20.8704
 20
92.2129
 30
0.0
 11
36.4698
 21
92.2129
 31
0.0
  0
LINE
  8
0
 62
     0
 10
36.4698
 20
92.2129
 30
0.0
 11
36.4698
 21
79.412
 31
0.0
  0
LINE
  8
0
 62
     0
 10
36.4698
 20
79.412
 30
0.0
 11
20.8704
 21
79.412
 31
0.0
  0
LINE
  8
0
 62
     0
 10
20.8704
 20
79.412
 30
0.0
 11
20.8704
 21
92.2129
 31
0.0
  0
LINE
  8
0
 62
     0
 10
39.9203
 20
92.2129
 30
0.0
 11
55.5198
 21
92.2129
 31
0.0
  0
LINE
  8
0
 62
     0
 10
55.5198
 20
92.2129
 30
0.0
 11
55.5198
 21
79.412
 31
0.0
  0
LINE
  8
0
 62
     0
 10
55.5198
 20
79.412
 30
0.0
 11
39.9203
 21
79.412
 31
0.0
  0
LINE
  8
0
 62
     0
 10
39.9203
 20
79.412
 30
0.0
 11
39.9203
 21
92.2129
 31
0.0
  0
LINE
  8
0
 62
     0
 10
58.9703
 20
92.2129
 30
0.0
 11
74.5698
 21
92.2129
 31
0.0
  0
LINE
  8
0
 62
     0
 10
74.5698
 20
92.2129
 30
0.0
 11
74.5698
 21
79.412
 31
0.0
  0
LINE
  8
0
 62
     0
 10
74.5698
 20
79.412
 30
0.0
 11
58.9703
 21
79.412
 31
0.0
  0
LINE
  8
0
 62
     0
 10
58.9703
 20
79.412
 30
0.0
 11
58.9703
 21
92.2129
 31
0.0
  0
LINE
  8
0
 62
     0
 10
78.0203
 20
92.2129
 30
0.0
 11
93.6184
 21
92.2129
 31
0.0
  0
LINE
  8
0
 62
     0
 10
93.6184
 20
92.2129
 30
0.0
 11
93.6184
 21
79.412
 31
0.0
  0
LINE
  8
0
 62
     0
 10
93.6184
 20
79.412
 30
0.0
 11
78.0203
 21
79.412
 31
0.0
  0
LINE
  8
0
 62
     0
 10
78.0203
 20
79.412
 30
0.0
 11
78.0203
 21
92.2129
 31
0.0
  0
LINE
  8
0
 62
     0
 10
97.0703
 20
92.2129
 30
0.0
 11
112.668
 21
92.2129
 31
0.0
  0
LINE
  8
0
 62
     0
 10
112.668
 20
92.2129
 30
0.0
 11
112.668
 21
79.412
 31
0.0
  0
LINE
  8
0
 62
     0
 10
112.668
 20
79.412
 30
0.0
 11
97.0703
 21
79.412
 31
0.0
  0
LINE
  8
0
 62
     0
 10
97.0703
 20
79.412
 30
0.0
 11
97.0703
 21
92.2129
 31
0.0
  0
LINE
  8
0
 62
     0
 10
116.119
 20
92.2129
 30
0.0
 11
131.72
 21
92.2129
 31
0.0
  0
LINE
  8
0
 62
     0
 10
131.72
 20
92.2129
 30
0.0
 11
131.72
 21
79.412
 31
0.0
  0
LINE
  8
0
 62
     0
 10
131.72
 20
79.412
 30
0.0
 11
116.119
 21
79.412
 31
0.0
  0
LINE
  8
0
 62
     0
 10
116.119
 20
79.412
 30
0.0
 11
116.119
 21
92.2129
 31
0.0
  0
LINE
  8
0
 62
     0
 10
135.17
 20
92.2129
 30
0.0
 11
150.77
 21
92.2129
 31
0.0
  0
LINE
  8
0
 62
     0
 10
150.77
 20
92.2129
 30
0.0
 11
150.77
 21
79.412
 31
0.0
  0
LINE
  8
0
 62
     0
 10
150.77
 20
79.412
 30
0.0
 11
135.17
 21
79.412
 31
0.0
  0
LINE
  8
0
 62
     0
 10
135.17
 20
79.412
 30
0.0
 11
135.17
 21
92.2129
 31
0.0
  0
LINE
  8
0
 62
     0
 10
154.22
 20
92.2129
 30
0.0
 11
169.82
 21
92.2129
 31
0.0
  0
LINE
  8
0
 62
     0
 10
169.82
 20
92.2129
 30
0.0
 11
169.82
 21
79.412
 31
0.0
  0
LINE
  8
0
 62
     0
 10
169.82
 20
79.412
 30
0.0
 11
154.22
 21
79.412
 31
0.0
  0
LINE
  8
0
 62
     0
 10
154.22
 20
79.412
 30
0.0
 11
154.22
 21
92.2129
 31
0.0
  0
LINE
  8
0
 62
     0
 10
173.27
 20
92.2129
 30
0.0
 11
188.87
 21
92.2129
 31
0.0
  0
LINE
  8
0
 62
     0
 10
188.87
 20
92.2129
 30
0.0
 11
188.87
 21
79.412
 31
0.0
  0
LINE
  8
0
 62
     0
 10
188.87
 20
79.412
 30
0.0
 11
173.27
 21
79.412
 31
0.0
  0
LINE
  8
0
 62
     0
 10
173.27
 20
79.412
 30
0.0
 11
173.27
 21
92.2129
 31
0.0
  0
LINE
  8
0
 62
     0
 10
192.32
 20
92.2129
 30
0.0
 11
207.92
 21
92.2129
 31
0.0
  0
LINE
  8
0
 62
     0
 10
207.92
 20
92.2129
 30
0.0
 11
207.92
 21
79.412
 31
0.0
  0
LINE
  8
0
 62
     0
 10
207.92
 20
79.412
 30
0.0
 11
192.32
 21
79.412
 31
0.0
  0
LINE
  8
0
 62
     0
 10
192.32
 20
79.412
 30
0.0
 11
192.32
 21
92.2129
 31
0.0
  0
LINE
  8
0
 62
     0
 10
211.37
 20
92.2129
 30
0.0
 11
226.97
 21
92.2129
 31
0.0
  0
LINE
  8
0
 62
     0
 10
226.97
 20
92.2129
 30
0.0
 11
226.97
 21
79.412
 31
0.0
  0
LINE
  8
0
 62
     0
 10
226.97
 20
79.412
 30
0.0
 11
211.37
 21
79.412
 31
0.0
  0
LINE
  8
0
 62
     0
 10
211.37
 20
79.412
 30
0.0
 11
211.37
 21
92.2129
 31
0.0
  0
LINE
  8
0
 62
     0
 10
230.42
 20
92.2129
 30
0.0
 11
246.02
 21
92.2129
 31
0.0
  0
LINE
  8
0
 62
     0
 10
246.02
 20
92.2129
 30
0.0
 11
246.02
 21
79.412
 31
0.0
  0
LINE
  8
0
 62
     0
 10
246.02
 20
79.412
 30
0.0
 11
230.42
 21
79.412
 31
0.0
  0
LINE
  8
0
 62
     0
 10
230.42
 20
79.412
 30
0.0
 11
230.42
 21
92.2129
 31
0.0
  0
LINE
  8
0
 62
     0
 10
258.995
 20
92.2129
 30
0.0
 11
274.595
 21
92.2129
 31
0.0
  0
LINE
  8
0
 62
     0
 10
274.595
 20
92.2129
 30
0.0
 11
274.595
 21
79.412
 31
0.0
  0
LINE
  8
0
 62
     0
 10
274.595
 20
79.412
 30
0.0
 11
258.995
 21
79.412
 31
0.0
  0
LINE
  8
0
 62
     0
 10
258.995
 20
79.412
 30
0.0
 11
258.995
 21
92.2129
 31
0.0
  0
LINE
  8
0
 62
     0
 10
297.095
 20
92.2129
 30
0.0
 11
312.695
 21
92.2129
 31
0.0
  0
LINE
  8
0
 62
     0
 10
312.695
 20
92.2129
 30
0.0
 11
312.695
 21
79.412
 31
0.0
  0
LINE
  8
0
 62
     0
 10
312.695
 20
79.412
 30
0.0
 11
297.095
 21
79.412
 31
0.0
  0
LINE
  8
0
 62
     0
 10
297.095
 20
79.412
 30
0.0
 11
297.095
 21
92.2129
 31
0.0
  0
LINE
  8
0
 62
     0
 10
316.145
 20
92.2129
 30
0.0
 11
331.745
 21
92.2129
 31
0.0
  0
LINE
  8
0
 62
     0
 10
331.745
 20
92.2129
 30
0.0
 11
331.745
 21
79.412
 31
0.0
  0
LINE
  8
0
 62
     0
 10
331.745
 20
79.412
 30
0.0
 11
316.145
 21
79.412
 31
0.0
  0
LINE
  8
0
 62
     0
 10
316.145
 20
79.412
 30
0.0
 11
316.145
 21
92.2129
 31
0.0
  0
LINE
  8
0
 62
     0
 10
335.195
 20
92.2129
 30
0.0
 11
350.795
 21
92.2129
 31
0.0
  0
LINE
  8
0
 62
     0
 10
350.795
 20
92.2129
 30
0.0
 11
350.795
 21
79.412
 31
0.0
  0
LINE
  8
0
 62
     0
 10
350.795
 20
79.412
 30
0.0
 11
335.195
 21
79.412
 31
0.0
  0
LINE
  8
0
 62
     0
 10
335.195
 20
79.412
 30
0.0
 11
335.195
 21
92.2129
 31
0.0
  0
LINE
  8
0
 62
     0
 10
363.77
 20
92.2129
 30
0.0
 11
379.37
 21
92.2129
 31
0.0
  0
LINE
  8
0
 62
     0
 10
379.37
 20
92.2129
 30
0.0
 11
379.37
 21
79.412
 31
0.0
  0
LINE
  8
0
 62
     0
 10
379.37
 20
79.412
 30
0.0
 11
363.77
 21
79.412
 31
0.0
  0
LINE
  8
0
 62
     0
 10
363.77
 20
79.412
 30
0.0
 11
363.77
 21
92.2129
 31
0.0
  0
LINE
  8
0
 62
     0
 10
382.82
 20
92.2129
 30
0.0
 11
398.42
 21
92.2129
 31
0.0
  0
LINE
  8
0
 62
     0
 10
398.42
 20
92.2129
 30
0.0
 11
398.42
 21
79.412
 31
0.0
  0
LINE
  8
0
 62
     0
 10
398.42
 20
79.412
 30
0.0
 11
382.82
 21
79.412
 31
0.0
  0
LINE
  8
0
 62
     0
 10
382.82
 20
79.412
 30
0.0
 11
382.82
 21
92.2129
 31
0.0
  0
LINE
  8
0
 62
     0
 10
401.87
 20
92.2129
 30
0.0
 11
417.47
 21
92.2129
 31
0.0
  0
LINE
  8
0
 62
     0
 10
417.47
 20
92.2129
 30
0.0
 11
417.47
 21
79.412
 31
0.0
  0
LINE
  8
0
 62
     0
 10
417.47
 20
79.412
 30
0.0
 11
401.87
 21
79.412
 31
0.0
  0
LINE
  8
0
 62
     0
 10
401.87
 20
79.412
 30
0.0
 11
401.87
 21
92.2129
 31
0.0
  0
LINE
  8
0
 62
     0
 10
420.92
 20
92.2129
 30
0.0
 11
436.52
 21
92.2129
 31
0.0
  0
LINE
  8
0
 62
     0
 10
436.52
 20
92.2129
 30
0.0
 11
436.52
 21
79.412
 31
0.0
  0
LINE
  8
0
 62
     0
 10
436.52
 20
79.412
 30
0.0
 11
420.92
 21
79.412
 31
0.0
  0
LINE
  8
0
 62
     0
 10
420.92
 20
79.412
 30
0.0
 11
420.92
 21
92.2129
 31
0.0
  0
LINE
  8
0
 62
     0
 10
1.82039
 20
130.313
 30
0.0
 11
17.4198
 21
130.313
 31
0.0
  0
LINE
  8
0
 62
     0
 10
17.4198
 20
130.313
 30
0.0
 11
17.4198
 21
117.512
 31
0.0
  0
LINE
  8
0
 62
     0
 10
17.4198
 20
117.512
 30
0.0
 11
1.82039
 21
117.512
 31
0.0
  0
LINE
  8
0
 62
     0
 10
1.82039
 20
117.512
 30
0.0
 11
1.82039
 21
130.313
 31
0.0
  0
LINE
  8
0
 62
     0
 10
39.9203
 20
130.313
 30
0.0
 11
55.5198
 21
130.313
 31
0.0
  0
LINE
  8
0
 62
     0
 10
55.5198
 20
130.313
 30
0.0
 11
55.5198
 21
117.512
 31
0.0
  0
LINE
  8
0
 62
     0
 10
55.5198
 20
117.512
 30
0.0
 11
39.9203
 21
117.512
 31
0.0
  0
LINE
  8
0
 62
     0
 10
39.9203
 20
117.512
 30
0.0
 11
39.9203
 21
130.313
 31
0.0
  0
LINE
  8
0
 62
     0
 10
58.9703
 20
130.313
 30
0.0
 11
74.5698
 21
130.313
 31
0.0
  0
LINE
  8
0
 62
     0
 10
74.5698
 20
130.313
 30
0.0
 11
74.5698
 21
117.512
 31
0.0
  0
LINE
  8
0
 62
     0
 10
74.5698
 20
117.512
 30
0.0
 11
58.9703
 21
117.512
 31
0.0
  0
LINE
  8
0
 62
     0
 10
58.9703
 20
117.512
 30
0.0
 11
58.9703
 21
130.313
 31
0.0
  0
LINE
  8
0
 62
     0
 10
78.0203
 20
130.313
 30
0.0
 11
93.6184
 21
130.313
 31
0.0
  0
LINE
  8
0
 62
     0
 10
93.6184
 20
130.313
 30
0.0
 11
93.6184
 21
117.512
 31
0.0
  0
LINE
  8
0
 62
     0
 10
93.6184
 20
117.512
 30
0.0
 11
78.0203
 21
117.512
 31
0.0
  0
LINE
  8
0
 62
     0
 10
78.0203
 20
117.512
 30
0.0
 11
78.0203
 21
130.313
 31
0.0
  0
LINE
  8
0
 62
     0
 10
97.0703
 20
130.313
 30
0.0
 11
112.668
 21
130.313
 31
0.0
  0
LINE
  8
0
 62
     0
 10
112.668
 20
130.313
 30
0.0
 11
112.668
 21
117.512
 31
0.0
  0
LINE
  8
0
 62
     0
 10
112.668
 20
117.512
 30
0.0
 11
97.0703
 21
117.512
 31
0.0
  0
LINE
  8
0
 62
     0
 10
97.0703
 20
117.512
 30
0.0
 11
97.0703
 21
130.313
 31
0.0
  0
LINE
  8
0
 62
     0
 10
125.644
 20
130.313
 30
0.0
 11
141.245
 21
130.313
 31
0.0
  0
LINE
  8
0
 62
     0
 10
141.245
 20
130.313
 30
0.0
 11
141.245
 21
117.512
 31
0.0
  0
LINE
  8
0
 62
     0
 10
141.245
 20
117.512
 30
0.0
 11
125.644
 21
117.512
 31
0.0
  0
LINE
  8
0
 62
     0
 10
125.644
 20
117.512
 30
0.0
 11
125.644
 21
130.313
 31
0.0
  0
LINE
  8
0
 62
     0
 10
144.695
 20
130.313
 30
0.0
 11
160.295
 21
130.313
 31
0.0
  0
LINE
  8
0
 62
     0
 10
160.295
 20
130.313
 30
0.0
 11
160.295
 21
117.512
 31
0.0
  0
LINE
  8
0
 62
     0
 10
160.295
 20
117.512
 30
0.0
 11
144.695
 21
117.512
 31
0.0
  0
LINE
  8
0
 62
     0
 10
144.695
 20
117.512
 30
0.0
 11
144.695
 21
130.313
 31
0.0
  0
LINE
  8
0
 62
     0
 10
163.745
 20
130.313
 30
0.0
 11
179.345
 21
130.313
 31
0.0
  0
LINE
  8
0
 62
     0
 10
179.345
 20
130.313
 30
0.0
 11
179.345
 21
117.512
 31
0.0
  0
LINE
  8
0
 62
     0
 10
179.345
 20
117.512
 30
0.0
 11
163.745
 21
117.512
 31
0.0
  0
LINE
  8
0
 62
     0
 10
163.745
 20
117.512
 30
0.0
 11
163.745
 21
130.313
 31
0.0
  0
LINE
  8
0
 62
     0
 10
182.795
 20
130.313
 30
0.0
 11
198.395
 21
130.313
 31
0.0
  0
LINE
  8
0
 62
     0
 10
198.395
 20
130.313
 30
0.0
 11
198.395
 21
117.512
 31
0.0
  0
LINE
  8
0
 62
     0
 10
198.395
 20
117.512
 30
0.0
 11
182.795
 21
117.512
 31
0.0
  0
LINE
  8
0
 62
     0
 10
182.795
 20
117.512
 30
0.0
 11
182.795
 21
130.313
 31
0.0
  0
LINE
  8
0
 62
     0
 10
211.37
 20
130.313
 30
0.0
 11
226.97
 21
130.313
 31
0.0
  0
LINE
  8
0
 62
     0
 10
226.97
 20
130.313
 30
0.0
 11
226.97
 21
117.512
 31
0.0
  0
LINE
  8
0
 62
     0
 10
226.97
 20
117.512
 30
0.0
 11
211.37
 21
117.512
 31
0.0
  0
LINE
  8
0
 62
     0
 10
211.37
 20
117.512
 30
0.0
 11
211.37
 21
130.313
 31
0.0
  0
LINE
  8
0
 62
     0
 10
230.42
 20
130.313
 30
0.0
 11
246.02
 21
130.313
 31
0.0
  0
LINE
  8
0
 62
     0
 10
246.02
 20
130.313
 30
0.0
 11
246.02
 21
117.512
 31
0.0
  0
LINE
  8
0
 62
     0
 10
246.02
 20
117.512
 30
0.0
 11
230.42
 21
117.512
 31
0.0
  0
LINE
  8
0
 62
     0
 10
230.42
 20
117.512
 30
0.0
 11
230.42
 21
130.313
 31
0.0
  0
LINE
  8
0
 62
     0
 10
249.47
 20
130.313
 30
0.0
 11
265.07
 21
130.313
 31
0.0
  0
LINE
  8
0
 62
     0
 10
265.07
 20
130.313
 30
0.0
 11
265.07
 21
117.512
 31
0.0
  0
LINE
  8
0
 62
     0
 10
265.07
 20
117.512
 30
0.0
 11
249.47
 21
117.512
 31
0.0
  0
LINE
  8
0
 62
     0
 10
249.47
 20
117.512
 30
0.0
 11
249.47
 21
130.313
 31
0.0
  0
LINE
  8
0
 62
     0
 10
268.52
 20
130.313
 30
0.0
 11
284.12
 21
130.313
 31
0.0
  0
LINE
  8
0
 62
     0
 10
284.12
 20
130.313
 30
0.0
 11
284.12
 21
117.512
 31
0.0
  0
LINE
  8
0
 62
     0
 10
284.12
 20
117.512
 30
0.0
 11
268.52
 21
117.512
 31
0.0
  0
LINE
  8
0
 62
     0
 10
268.52
 20
117.512
 30
0.0
 11
268.52
 21
130.313
 31
0.0
  0
LINE
  8
0
 62
     0
 10
297.095
 20
130.313
 30
0.0
 11
312.695
 21
130.313
 31
0.0
  0
LINE
  8
0
 62
     0
 10
312.695
 20
130.313
 30
0.0
 11
312.695
 21
117.512
 31
0.0
  0
LINE
  8
0
 62
     0
 10
312.695
 20
117.512
 30
0.0
 11
297.095
 21
117.512
 31
0.0
  0
LINE
  8
0
 62
     0
 10
297.095
 20
117.512
 30
0.0
 11
297.095
 21
130.313
 31
0.0
  0
LINE
  8
0
 62
     0
 10
316.145
 20
130.313
 30
0.0
 11
331.745
 21
130.313
 31
0.0
  0
LINE
  8
0
 62
     0
 10
331.745
 20
130.313
 30
0.0
 11
331.745
 21
117.512
 31
0.0
  0
LINE
  8
0
 62
     0
 10
331.745
 20
117.512
 30
0.0
 11
316.145
 21
117.512
 31
0.0
  0
LINE
  8
0
 62
     0
 10
316.145
 20
117.512
 30
0.0
 11
316.145
 21
130.313
 31
0.0
  0
LINE
  8
0
 62
     0
 10
335.195
 20
130.313
 30
0.0
 11
350.795
 21
130.313
 31
0.0
  0
LINE
  8
0
 62
     0
 10
350.795
 20
130.313
 30
0.0
 11
350.795
 21
117.512
 31
0.0
  0
LINE
  8
0
 62
     0
 10
350.795
 20
117.512
 30
0.0
 11
335.195
 21
117.512
 31
0.0
  0
LINE
  8
0
 62
     0
 10
335.195
 20
117.512
 30
0.0
 11
335.195
 21
130.313
 31
0.0
  0
LINE
  8
0
 62
     0
 10
420.92
 20
130.313
 30
0.0
 11
436.52
 21
130.313
 31
0.0
  0
LINE
  8
0
 62
     0
 10
436.52
 20
130.313
 30
0.0
 11
436.52
 21
117.512
 31
0.0
  0
LINE
  8
0
 62
     0
 10
436.52
 20
117.512
 30
0.0
 11
420.92
 21
117.512
 31
0.0
  0
LINE
  8
0
 62
     0
 10
420.92
 20
117.512
 30
0.0
 11
420.92
 21
130.313
 31
0.0
  0
ENDSEC
  0
EOF
