  0
SECTION
  2
HEADER
  9
$ACADVER
  1
AC1009
  9
$EXTMIN
 10
0.0
 20
0.0
 30
0.0
  9
$EXTMAX
 10
1000.0
 20
1000.0
 30
0.0
  9
$FILLMODE
 70
 0
  9
$SPLFRAME
 70
 1
  0
ENDSEC
  0
SECTION
  2
TABLES
  0
TABLE
  2
LAYER
 70
1
  0
LAYER
  2
0
 70
     0
 62
     7
  6
CONTINUOUS
  0
ENDTAB
  0
ENDSEC
  0
SECTION
  2
ENTITIES
  0
LINE
  8
0
 62
     0
 10
0.0950846
 20
57.2477
 30
0.0
 11
52.4828
 21
57.2477
 31
0.0
  0
LINE
  8
0
 62
     0
 10
52.4828
 20
57.2477
 30
0.0
 11
52.4828
 21
0.0978408
 31
0.0
  0
LINE
  8
0
 62
     0
 10
52.4828
 20
0.0978408
 30
0.0
 11
0.0950846
 21
0.0978408
 31
0.0
  0
LINE
  8
0
 62
     0
 10
0.0950846
 20
0.0978408
 30
0.0
 11
0.0950846
 21
57.2477
 31
0.0
  0
LINE
  8
0
 62
     0
 10
10.859
 20
5.75194
 30
0.0
 11
13.5241
 21
5.75194
 31
0.0
  0
LINE
  8
0
 62
     0
 10
13.5241
 20
5.75194
 30
0.0
 11
13.5241
 21
0.544326
 31
0.0
  0
LINE
  8
0
 62
     0
 10
13.5241
 20
0.544326
 30
0.0
 11
10.859
 21
0.544326
 31
0.0
  0
LINE
  8
0
 62
     0
 10
10.859
 20
0.544326
 30
0.0
 11
10.859
 21
5.75194
 31
0.0
  0
LINE
  8
0
 62
     0
 10
39.0507
 20
5.75194
 30
0.0
 11
41.7174
 21
5.75194
 31
0.0
  0
LINE
  8
0
 62
     0
 10
41.7174
 20
5.75194
 30
0.0
 11
41.7174
 21
0.544326
 31
0.0
  0
LINE
  8
0
 62
     0
 10
41.7174
 20
0.544326
 30
0.0
 11
39.0507
 21
0.544326
 31
0.0
  0
LINE
  8
0
 62
     0
 10
39.0507
 20
0.544326
 30
0.0
 11
39.0507
 21
5.75194
 31
0.0
  0
LINE
  8
0
 62
     0
 10
18.4878
 20
16.0252
 30
0.0
 11
34.0872
 21
16.0252
 31
0.0
  0
LINE
  8
0
 62
     0
 10
34.0872
 20
16.0252
 30
0.0
 11
34.0872
 21
3.22461
 31
0.0
  0
LINE
  8
0
 62
     0
 10
34.0872
 20
3.22461
 30
0.0
 11
18.4878
 21
3.22461
 31
0.0
  0
LINE
  8
0
 62
     0
 10
18.4878
 20
3.22461
 30
0.0
 11
18.4878
 21
16.0252
 31
0.0
  0
LINE
  8
0
 62
     0
 10
11.3454
 20
35.0752
 30
0.0
 11
26.9448
 21
35.0752
 31
0.0
  0
LINE
  8
0
 62
     0
 10
26.9448
 20
35.0752
 30
0.0
 11
26.9448
 21
22.2746
 31
0.0
  0
LINE
  8
0
 62
     0
 10
26.9448
 20
22.2746
 30
0.0
 11
11.3454
 21
22.2746
 31
0.0
  0
LINE
  8
0
 62
     0
 10
11.3454
 20
22.2746
 30
0.0
 11
11.3454
 21
35.0752
 31
0.0
  0
LINE
  8
0
 62
     0
 10
31.495
 20
25.4372
 30
0.0
 11
36.7026
 21
25.4372
 31
0.0
  0
LINE
  8
0
 62
     0
 10
36.7026
 20
25.4372
 30
0.0
 11
36.7026
 21
22.7707
 31
0.0
  0
LINE
  8
0
 62
     0
 10
36.7026
 20
22.7707
 30
0.0
 11
31.495
 21
22.7707
 31
0.0
  0
LINE
  8
0
 62
     0
 10
31.495
 20
22.7707
 30
0.0
 11
31.495
 21
25.4372
 31
0.0
  0
LINE
  8
0
 62
     0
 10
34.1753
 20
45.999
 30
0.0
 11
46.9759
 21
45.999
 31
0.0
  0
LINE
  8
0
 62
     0
 10
46.9759
 20
45.999
 30
0.0
 11
46.9759
 21
30.3995
 31
0.0
  0
LINE
  8
0
 62
     0
 10
46.9759
 20
30.3995
 30
0.0
 11
34.1753
 21
30.3995
 31
0.0
  0
LINE
  8
0
 62
     0
 10
34.1753
 20
30.3995
 30
0.0
 11
34.1753
 21
45.999
 31
0.0
  0
LINE
  8
0
 62
     0
 10
6.58153
 20
54.1253
 30
0.0
 11
22.1823
 21
54.1253
 31
0.0
  0
LINE
  8
0
 62
     0
 10
22.1823
 20
54.1253
 30
0.0
 11
22.1823
 21
41.3247
 31
0.0
  0
LINE
  8
0
 62
     0
 10
22.1823
 20
41.3247
 30
0.0
 11
6.58153
 21
41.3247
 31
0.0
  0
LINE
  8
0
 62
     0
 10
6.58153
 20
41.3247
 30
0.0
 11
6.58153
 21
54.1253
 31
0.0
  0
LINE
  8
0
 62
     0
 10
31.495
 20
53.6293
 30
0.0
 11
36.7026
 21
53.6293
 31
0.0
  0
LINE
  8
0
 62
     0
 10
36.7026
 20
53.6293
 30
0.0
 11
36.7026
 21
50.9626
 31
0.0
  0
LINE
  8
0
 62
     0
 10
36.7026
 20
50.9626
 30
0.0
 11
31.495
 21
50.9626
 31
0.0
  0
LINE
  8
0
 62
     0
 10
31.495
 20
50.9626
 30
0.0
 11
31.495
 21
53.6293
 31
0.0
  0
ENDSEC
  0
EOF
